<?xml version="1.0" encoding="UTF-8" standalone="no"?>
<!DOCTYPE svg PUBLIC "-//W3C//DTD SVG 1.1//EN"
 "http://www.w3.org/Graphics/SVG/1.1/DTD/svg11.dtd">
<!-- Generated by graphviz version 2.43.0 (0)
 -->
<!-- Title: %3 Pages: 1 -->
<svg width="532pt" height="121pt"
 viewBox="0.00 0.00 531.50 121.01" xmlns="http://www.w3.org/2000/svg" xmlns:xlink="http://www.w3.org/1999/xlink">
<g id="graph0" class="graph" transform="scale(1 1) rotate(0) translate(4 117.01)">
<title>%3</title>
<polygon fill="white" stroke="transparent" points="-4,4 -4,-117.01 527.5,-117.01 527.5,4 -4,4"/>
<!-- src_se3_aligned_cmo_fit -->
<g id="node1" class="node">
<title>src_se3_aligned_cmo_fit</title>
<ellipse fill="lightblue" stroke="black" stroke-width="2" cx="170" cy="-92.51" rx="109.7" ry="20.51"/>
<text text-anchor="middle" x="170" y="-88.81" font-family="Times,serif" font-size="14.00">SE(3) aligned CMO fit</text>
</g>
<!-- ds_aligned_cmo_fit_json -->
<g id="node3" class="node">
<title>ds_aligned_cmo_fit_json</title>
<polygon fill="lightgrey" stroke="black" stroke-width="2" points="98,-36 0,-36 0,0 98,0 98,-36"/>
<text text-anchor="middle" x="49" y="-14.3" font-family="Times,serif" font-size="14.00">26p fit result</text>
</g>
<!-- src_se3_aligned_cmo_fit&#45;&gt;ds_aligned_cmo_fit_json -->
<g id="edge2" class="edge">
<title>src_se3_aligned_cmo_fit&#45;&gt;ds_aligned_cmo_fit_json</title>
<path fill="none" stroke="black" d="M133.18,-73.02C116.32,-63.46 96.6,-51.72 80.44,-41.62"/>
<polygon fill="black" stroke="black" points="82.19,-38.59 71.87,-36.21 78.46,-44.5 82.19,-38.59"/>
</g>
<!-- ds_se3_ablation_json -->
<g id="node4" class="node">
<title>ds_se3_ablation_json</title>
<polygon fill="#ffa07a" stroke="red" stroke-width="6" points="223.5,-36 116.5,-36 116.5,0 223.5,0 223.5,-36"/>
<text text-anchor="middle" x="170" y="-14.3" font-family="Times,serif" font-size="14.00">SE(3) ablation</text>
</g>
<!-- src_se3_aligned_cmo_fit&#45;&gt;ds_se3_ablation_json -->
<g id="edge3" class="edge">
<title>src_se3_aligned_cmo_fit&#45;&gt;ds_se3_ablation_json</title>
<path fill="none" stroke="black" d="M170,-71.69C170,-63.91 170,-54.84 170,-46.45"/>
<polygon fill="black" stroke="black" points="173.5,-46.32 170,-36.32 166.5,-46.32 173.5,-46.32"/>
</g>
<!-- ds_autopsy_26p_json -->
<g id="node6" class="node">
<title>ds_autopsy_26p_json</title>
<polygon fill="#ffa07a" stroke="red" stroke-width="6" points="336.5,-36 241.5,-36 241.5,0 336.5,0 336.5,-36"/>
<text text-anchor="middle" x="289" y="-14.3" font-family="Times,serif" font-size="14.00">26p autopsy</text>
</g>
<!-- src_se3_aligned_cmo_fit&#45;&gt;ds_autopsy_26p_json -->
<g id="edge4" class="edge">
<title>src_se3_aligned_cmo_fit&#45;&gt;ds_autopsy_26p_json</title>
<path fill="none" stroke="black" d="M200.96,-72.65C216.64,-63.09 235.8,-51.41 252.24,-41.4"/>
<polygon fill="black" stroke="black" points="254.33,-44.22 261.05,-36.03 250.69,-38.25 254.33,-44.22"/>
</g>
<!-- ds_pca_residual_26p_json -->
<g id="node7" class="node">
<title>ds_pca_residual_26p_json</title>
<polygon fill="#ffa07a" stroke="red" stroke-width="6" points="455.5,-36 354.5,-36 354.5,0 455.5,0 455.5,-36"/>
<text text-anchor="middle" x="405" y="-14.3" font-family="Times,serif" font-size="14.00">PCA residual</text>
</g>
<!-- src_se3_aligned_cmo_fit&#45;&gt;ds_pca_residual_26p_json -->
<g id="edge5" class="edge">
<title>src_se3_aligned_cmo_fit&#45;&gt;ds_pca_residual_26p_json</title>
<path fill="none" stroke="black" d="M224.5,-74.69C260.48,-63.59 307.63,-49.04 344.72,-37.6"/>
<polygon fill="black" stroke="black" points="345.88,-40.9 354.41,-34.61 343.82,-34.21 345.88,-40.9"/>
</g>
<!-- ds_arm_alignment_diagnostic_json -->
<g id="node2" class="node">
<title>ds_arm_alignment_diagnostic_json</title>
<polygon fill="#ffa07a" stroke="red" stroke-width="6" points="410.5,-110.51 297.5,-110.51 297.5,-74.51 410.5,-74.51 410.5,-110.51"/>
<text text-anchor="middle" x="354" y="-88.81" font-family="Times,serif" font-size="14.00">Arm alignment</text>
</g>
<!-- ds_aligned_cmo_fit_json&#45;&gt;src_se3_aligned_cmo_fit -->
<g id="edge1" class="edge">
<title>ds_aligned_cmo_fit_json&#45;&gt;src_se3_aligned_cmo_fit</title>
<path fill="none" stroke="black" d="M83.53,-36.19C99.85,-45.39 119.22,-56.88 135.52,-67"/>
<polygon fill="black" stroke="black" points="133.9,-70.11 144.23,-72.46 137.62,-64.18 133.9,-70.11"/>
</g>
<!-- ds_autopsy_20p_json -->
<g id="node5" class="node">
<title>ds_autopsy_20p_json</title>
<polygon fill="#ffa07a" stroke="red" stroke-width="6" points="523.5,-110.51 428.5,-110.51 428.5,-74.51 523.5,-74.51 523.5,-110.51"/>
<text text-anchor="middle" x="476" y="-88.81" font-family="Times,serif" font-size="14.00">20p autopsy</text>
</g>
</g>
</svg>
