<?xml version="1.0" encoding="UTF-8" standalone="no"?>
<!DOCTYPE svg PUBLIC "-//W3C//DTD SVG 1.1//EN"
 "http://www.w3.org/Graphics/SVG/1.1/DTD/svg11.dtd">
<!-- Generated by graphviz version 2.43.0 (0)
 -->
<!-- Title: %3 Pages: 1 -->
<svg width="487pt" height="198pt"
 viewBox="0.00 0.00 487.00 198.02" xmlns="http://www.w3.org/2000/svg" xmlns:xlink="http://www.w3.org/1999/xlink">
<g id="graph0" class="graph" transform="scale(1 1) rotate(0) translate(4 194.02)">
<title>%3</title>
<polygon fill="white" stroke="transparent" points="-4,4 -4,-194.02 483,-194.02 483,4 -4,4"/>
<!-- src_zernike_rayfield_fit -->
<g id="node1" class="node">
<title>src_zernike_rayfield_fit</title>
<ellipse fill="lightblue" stroke="black" stroke-width="2" cx="165.5" cy="-169.52" rx="103.48" ry="20.51"/>
<text text-anchor="middle" x="165.5" y="-165.82" font-family="Times,serif" font-size="14.00">Zernike O(0)+d(2) fit</text>
</g>
<!-- ds_tps_intermediate_state_npz -->
<g id="node3" class="node">
<title>ds_tps_intermediate_state_npz</title>
<polygon fill="lightgrey" stroke="black" stroke-width="2" points="161,-113.01 0,-113.01 0,-77.01 161,-77.01 161,-113.01"/>
<text text-anchor="middle" x="80.5" y="-91.31" font-family="Times,serif" font-size="14.00">Denoised corners (NPZ)</text>
</g>
<!-- src_zernike_rayfield_fit&#45;&gt;ds_tps_intermediate_state_npz -->
<g id="edge4" class="edge">
<title>src_zernike_rayfield_fit&#45;&gt;ds_tps_intermediate_state_npz</title>
<path fill="none" stroke="black" d="M137.14,-149.47C125.82,-140.51 113.05,-129.72 102.44,-120.19"/>
<polygon fill="black" stroke="black" points="104.55,-117.38 94.81,-113.2 99.82,-122.54 104.55,-117.38"/>
</g>
<!-- ds_summary_json -->
<g id="node4" class="node">
<title>ds_summary_json</title>
<polygon fill="lightgrey" stroke="black" stroke-width="2" points="324,-113.01 179,-113.01 179,-77.01 324,-77.01 324,-113.01"/>
<text text-anchor="middle" x="251.5" y="-91.31" font-family="Times,serif" font-size="14.00">Calibration summary</text>
</g>
<!-- src_zernike_rayfield_fit&#45;&gt;ds_summary_json -->
<g id="edge5" class="edge">
<title>src_zernike_rayfield_fit&#45;&gt;ds_summary_json</title>
<path fill="none" stroke="black" d="M188.1,-149.47C198.83,-140.42 211.77,-129.51 223.15,-119.91"/>
<polygon fill="black" stroke="black" points="225.72,-122.32 231.11,-113.2 221.21,-116.97 225.72,-122.32"/>
</g>
<!-- ds_zernike_pose_variants_json -->
<g id="node5" class="node">
<title>ds_zernike_pose_variants_json</title>
<polygon fill="lightgrey" stroke="black" stroke-width="2" points="479,-113.01 342,-113.01 342,-77.01 479,-77.01 479,-113.01"/>
<text text-anchor="middle" x="410.5" y="-91.31" font-family="Times,serif" font-size="14.00">Zernike coefficients</text>
</g>
<!-- src_zernike_rayfield_fit&#45;&gt;ds_zernike_pose_variants_json -->
<g id="edge7" class="edge">
<title>src_zernike_rayfield_fit&#45;&gt;ds_zernike_pose_variants_json</title>
<path fill="none" stroke="black" d="M220.79,-152.16C256.93,-141.46 304.39,-127.42 342.79,-116.05"/>
<polygon fill="black" stroke="black" points="344.26,-119.27 352.86,-113.07 342.27,-112.55 344.26,-119.27"/>
</g>
<!-- src_cmo_descriptor_readout -->
<g id="node2" class="node">
<title>src_cmo_descriptor_readout</title>
<ellipse fill="lightblue" stroke="black" stroke-width="2" cx="251.5" cy="-20.51" rx="91.85" ry="20.51"/>
<text text-anchor="middle" x="251.5" y="-16.81" font-family="Times,serif" font-size="14.00">Descriptor readout</text>
</g>
<!-- src_cmo_descriptor_readout&#45;&gt;ds_summary_json -->
<g id="edge6" class="edge">
<title>src_cmo_descriptor_readout&#45;&gt;ds_summary_json</title>
<path fill="none" stroke="black" d="M257.57,-41.13C258.26,-48.97 258.42,-58.13 258.07,-66.61"/>
<polygon fill="black" stroke="black" points="254.56,-66.61 257.34,-76.83 261.54,-67.1 254.56,-66.61"/>
</g>
<!-- ds_tps_intermediate_state_npz&#45;&gt;src_zernike_rayfield_fit -->
<g id="edge1" class="edge">
<title>ds_tps_intermediate_state_npz&#45;&gt;src_zernike_rayfield_fit</title>
<path fill="none" stroke="black" d="M106.27,-113.03C117.39,-121.72 130.25,-132.49 141.2,-142.23"/>
<polygon fill="black" stroke="black" points="139.02,-144.97 148.78,-149.09 143.71,-139.78 139.02,-144.97"/>
</g>
<!-- ds_summary_json&#45;&gt;src_cmo_descriptor_readout -->
<g id="edge2" class="edge">
<title>ds_summary_json&#45;&gt;src_cmo_descriptor_readout</title>
<path fill="none" stroke="black" d="M245.66,-76.83C244.86,-69.21 244.59,-60.01 244.85,-51.33"/>
<polygon fill="black" stroke="black" points="248.35,-51.31 245.43,-41.13 241.36,-50.91 248.35,-51.31"/>
</g>
<!-- ds_zernike_pose_variants_json&#45;&gt;src_cmo_descriptor_readout -->
<g id="edge3" class="edge">
<title>ds_zernike_pose_variants_json&#45;&gt;src_cmo_descriptor_readout</title>
<path fill="none" stroke="black" d="M372.82,-76.83C350.85,-66.81 322.92,-54.08 299.4,-43.35"/>
<polygon fill="black" stroke="black" points="300.84,-40.16 290.29,-39.2 297.94,-46.53 300.84,-40.16"/>
</g>
</g>
</svg>
